<svg viewBox="0 0 96 24" fill="white" xmlns="http://www.w3.org/2000/svg">
    <path fill-rule="evenodd" clip-rule="evenodd"
        d="M46.8949 0H47.7433V5.99731H46.8949V0ZM28.5993 1.06508C28.0801 0.514926 27.3424 0.227392 26.5892 0.281626H24.5316V5.9974H26.5892C28.286 5.9974 29.2696 4.94776 29.2696 3.12172C29.3645 2.37004 29.1186 1.61524 28.5993 1.06508ZM26.4893 5.18908H25.4153V1.08937H26.4893C27.0247 1.05955 27.5454 1.27138 27.9089 1.66692C28.2725 2.06246 28.4408 2.60031 28.3679 3.13337C28.4465 3.66866 28.2806 4.21098 27.9162 4.60977C27.5517 5.00856 27.0276 5.22136 26.4893 5.18908ZM30.2679 3.83872C30.1942 3.06556 30.5636 2.31732 31.2213 1.90779C31.8791 1.49827 32.7113 1.49827 33.369 1.90779C34.0267 2.31732 34.3962 3.06556 34.3225 3.83872C34.3976 4.6127 34.0285 5.3624 33.3702 5.77281C32.7119 6.18322 31.8785 6.18322 31.2202 5.77281C30.5619 5.3624 30.1928 4.6127 30.2679 3.83872ZM32.2982 2.35693C33.0328 2.35693 33.4514 2.90372 33.4514 3.83872C33.4514 4.77746 33.0328 5.32378 32.2982 5.32379C31.5607 5.32379 31.1459 4.78122 31.1459 3.83873C31.1459 2.90372 31.5607 2.35693 32.2982 2.35693ZM39.7148 5.99732H38.8347L37.9462 2.82045H37.8791L36.9944 5.99732H36.1226L34.9377 1.68385H35.7982L36.5683 4.97528H36.6317L37.5155 1.68385H38.3294L39.2132 4.97528H39.2804L40.0467 1.68385H40.8951L39.7148 5.99732ZM42.7074 1.68386H41.8907L41.8906 5.99732H42.739V3.47388C42.7086 3.18683 42.8046 2.90074 43.0019 2.69064C43.1992 2.48053 43.4781 2.36736 43.7655 2.38079C44.393 2.38079 44.6932 2.72552 44.6932 3.4187V5.99728H45.5416V3.20493C45.6038 2.78318 45.4714 2.35593 45.182 2.04383C44.8925 1.73173 44.4773 1.56863 44.0536 1.6006C43.5064 1.55597 42.9912 1.86458 42.7708 2.36909H42.7074V1.68386ZM49.873 1.90772C49.2153 2.31725 48.8457 3.06552 48.9194 3.83872C48.8444 4.61274 49.2136 5.36241 49.8719 5.7728C50.5302 6.18319 51.3636 6.18319 52.0219 5.7728C52.6803 5.36241 53.0495 4.61274 52.9745 3.83872C53.0481 3.06552 52.6786 2.31725 52.0208 1.90772C51.3631 1.49819 50.5308 1.49819 49.873 1.90772ZM52.103 3.83872C52.103 2.90372 51.6844 2.35693 50.9497 2.35693C50.2123 2.35693 49.7974 2.90372 49.7974 3.83873C49.7974 4.78122 50.2123 5.32379 50.9497 5.32379C51.6844 5.32378 52.103 4.77746 52.103 3.83872ZM55.4703 3.48976C54.4476 3.55338 53.8714 4.001 53.8714 4.77744C53.8729 5.1456 54.0295 5.49596 54.3025 5.74191C54.5755 5.98787 54.9395 6.10646 55.3044 6.06837C55.825 6.09252 56.3183 5.8338 56.5956 5.39112H56.6628V5.9973H57.4795V3.0501C57.4795 2.13894 56.8716 1.60059 55.7939 1.60059C54.8187 1.60059 54.1241 2.0758 54.0374 2.8167H54.8587C54.9529 2.51173 55.2811 2.33727 55.7547 2.33727C56.3346 2.33727 56.6348 2.59452 56.6348 3.0501V3.42241L55.4703 3.48976ZM56.6324 4.40888V4.04826L55.5826 4.11562C54.9906 4.15537 54.7221 4.35743 54.7221 4.7377C54.7221 5.12592 55.0577 5.35183 55.5193 5.35183C55.7925 5.37959 56.0652 5.29489 56.2751 5.11714C56.4849 4.93939 56.6138 4.6838 56.6324 4.40888ZM60.3746 1.6123C59.2885 1.6123 58.5902 2.47574 58.5902 3.83872C58.5902 5.20498 59.281 6.06844 60.3746 6.0684C60.9291 6.0889 61.4491 5.79902 61.7246 5.31581H61.7917V5.99731H62.6047V0H61.7563V2.36906H61.6929C61.4367 1.88181 60.9231 1.58694 60.3746 1.6123ZM59.4691 3.83872C59.4691 4.75361 59.8989 5.30414 60.6177 5.30414C61.3328 5.30414 61.7747 4.74567 61.7747 3.84247C61.7747 2.94347 61.3281 2.37704 60.6177 2.37704C59.9035 2.37704 59.4691 2.93131 59.4691 3.83872H59.4691ZM67.0723 1.90779C66.4146 2.31732 66.0451 3.06556 66.1189 3.83872C66.0437 4.6127 66.4129 5.3624 67.0712 5.77281C67.7295 6.18322 68.5628 6.18322 69.2211 5.77281C69.8794 5.3624 70.2486 4.6127 70.1735 3.83872C70.2472 3.06556 69.8777 2.31732 69.22 1.90779C68.5623 1.49827 67.73 1.49827 67.0723 1.90779ZM69.2985 3.83872C69.2985 2.90372 68.8799 2.35693 68.1452 2.35693C67.4078 2.35693 66.993 2.90372 66.993 3.83873C66.993 4.78122 67.4078 5.32379 68.1452 5.32379C68.8799 5.32378 69.2985 4.77746 69.2985 3.83872ZM72.1256 1.68385H71.3089V5.99731H72.1573V3.47387C72.1269 3.18681 72.2229 2.90073 72.4202 2.69062C72.6175 2.48052 72.8964 2.36734 73.1838 2.38077C73.8113 2.38077 74.1115 2.7255 74.1115 3.41868V5.99726H74.9599V3.20491C75.022 2.78316 74.8897 2.35592 74.6003 2.04382C74.3108 1.73171 73.8956 1.56862 73.4719 1.60058C72.9247 1.55595 72.4095 1.86457 72.189 2.36908H72.1256V1.68385ZM79.7509 0.609924V1.70349H80.6823V2.42053H79.7509V4.63854C79.7509 5.09037 79.9364 5.28822 80.3587 5.28822C80.4669 5.28787 80.5749 5.28131 80.6823 5.26857V5.97766C80.5299 6.00501 80.3755 6.01956 80.2208 6.02116C79.2773 6.02116 78.9015 5.68813 78.9015 4.85649V2.4205H78.2191V1.70345H78.9015V0.609924H79.7509ZM82.6858 0H81.8449L81.8449 5.9973H82.6933V3.47808C82.6671 3.18209 82.7724 2.88957 82.9811 2.67873C83.1898 2.46789 83.4806 2.36022 83.7757 2.38451C84.3752 2.38451 84.695 2.73344 84.695 3.42242V5.99732H85.5442V3.21242C85.6004 2.79283 85.4672 2.36996 85.1809 2.05899C84.8946 1.74802 84.485 1.58134 84.0637 1.60434C83.5082 1.5591 82.984 1.86811 82.753 2.37704H82.6858V0ZM90.4886 4.83267C90.2507 5.64631 89.4659 6.17201 88.6258 6.08058C88.0526 6.09576 87.5017 5.85736 87.1193 5.42861C86.7369 4.99987 86.5616 4.42414 86.64 3.85417C86.5637 3.28261 86.7383 2.70595 87.1186 2.27359C87.4988 1.84122 88.0474 1.5957 88.6221 1.60061C89.8182 1.60061 90.5398 2.42059 90.5398 3.7751V4.07214H87.5042V4.11985C87.4774 4.43993 87.5863 4.75653 87.8043 4.99179C88.0223 5.22705 88.329 5.35913 88.6491 5.35557C89.0642 5.40557 89.4682 5.19898 89.6719 4.83264L90.4886 4.83267ZM89.6757 3.44255H87.5043C87.5005 3.14511 87.6165 2.85871 87.8261 2.64833C88.0357 2.43794 88.3211 2.3214 88.6175 2.32513C88.91 2.31841 89.1917 2.43592 89.3932 2.64872C89.5947 2.86152 89.6973 3.14981 89.6757 3.44255ZM61.7682 19.7707C60.2075 19.7707 59.0654 18.9962 58.934 17.8165L57.1178 17.8165C57.2325 19.9681 59.0076 21.3292 61.6367 21.3292C64.4467 21.3292 66.2134 19.9353 66.2134 17.7098C66.2134 15.9699 65.2028 14.9895 62.7704 14.4123L61.4642 14.0905C59.9362 13.7117 59.3115 13.2168 59.3115 12.3758C59.3115 11.3206 60.2895 10.5956 61.7187 10.5956C63.148 10.5956 64.126 11.3122 64.2332 12.4993H66.0242C65.9664 10.4469 64.249 9.03709 61.7439 9.03709C59.2127 9.03709 57.4302 10.4469 57.4302 12.4993C57.4302 14.1569 58.4408 15.1785 60.6177 15.7061L62.1542 16.0775C63.6906 16.4563 64.3395 17.0092 64.3395 17.9325C64.3395 18.9961 63.2636 19.7707 61.7682 19.7707ZM30.8586 17.9157H26.3397L25.2545 21.1309H23.3405L27.6207 9.23544H29.6093L33.8895 21.1309H31.9429L30.8586 17.9157ZM26.8092 16.432H30.3911L28.6253 11.214H28.5759L26.8092 16.432ZM39.5271 21.2217C41.6966 21.2217 43.1342 19.4901 43.1342 16.795C43.1342 14.1074 41.6881 12.3674 39.4945 12.3674C38.3657 12.3309 37.3082 12.92 36.7423 13.9007H36.7097V12.4582H34.9923V24H36.7665V19.7043H36.8076C37.3494 20.6912 38.4057 21.2805 39.5271 21.2217ZM41.31 16.795C41.31 15.0391 40.4056 13.8848 39.0258 13.8848C37.6702 13.8848 36.7584 15.0634 36.7584 16.795C36.7584 18.5425 37.6702 19.7127 39.0258 19.7127C40.4056 19.7127 41.31 18.5668 41.31 16.795ZM49.0393 21.2217C51.2088 21.2217 52.6464 19.4901 52.6464 16.795C52.6464 14.1074 51.2004 12.3674 49.0066 12.3674C47.8778 12.3309 46.8204 12.92 46.2545 13.9007H46.2218V12.4582H44.5045V24H46.2787V19.7043H46.3198C46.8616 20.6912 47.9179 21.2805 49.0393 21.2217ZM50.822 16.795C50.822 15.0391 49.9176 13.8848 48.5378 13.8848C47.1823 13.8848 46.2705 15.0634 46.2705 16.795C46.2705 18.5425 47.1823 19.7127 48.5378 19.7127C49.9176 19.7127 50.822 18.5668 50.822 16.795ZM70.0402 10.4057V12.4582H71.6839V13.8679H70.0402V18.6491C70.0402 19.3919 70.3693 19.738 71.0918 19.738C71.287 19.7346 71.4818 19.7208 71.6755 19.6968V21.0981C71.3506 21.1591 71.0204 21.1866 70.69 21.1805C68.9401 21.1805 68.2576 20.521 68.2576 18.839V13.8679H67.0009V12.4582H68.2576V10.4057H70.0402ZM76.7374 12.3515C74.2397 12.3515 72.638 14.0663 72.638 16.795C72.638 19.5313 74.2238 21.2385 76.7374 21.2385C79.2518 21.2385 80.8376 19.5313 80.8376 16.795C80.8376 14.0662 79.2434 12.3515 76.7374 12.3515ZM79.0301 16.795C79.0301 14.9231 78.1752 13.8183 76.7375 13.8183C75.2999 13.8183 74.4459 14.9316 74.4459 16.795C74.4459 18.6744 75.2999 19.7708 76.7375 19.7708C78.1752 19.7708 79.0301 18.6744 79.0301 16.795ZM83.9927 12.4582H82.3005L82.3005 21.1309H84.0747V15.9868C84.0156 15.4663 84.1862 14.946 84.5416 14.5624C84.8971 14.1787 85.4019 13.9702 85.9235 13.9914C86.1932 13.9835 86.4625 14.0198 86.7206 14.099V12.4338C86.5211 12.389 86.3172 12.3667 86.1128 12.3674C85.1375 12.33 84.2697 12.9841 84.0337 13.9343H83.9927V12.4582ZM94.903 18.5836C94.6643 20.158 93.1362 21.2385 91.1812 21.2385C88.6668 21.2385 87.1061 19.5481 87.1061 16.8362C87.1061 14.1158 88.6752 12.3515 91.1066 12.3515C93.498 12.3515 95.0018 13.9998 95.0018 16.6294V17.2394H88.8971V17.3469C88.8401 17.9926 89.0623 18.6317 89.5071 19.1017C89.952 19.5717 90.5767 19.8273 91.2222 19.8035C92.0832 19.8844 92.8949 19.3884 93.2183 18.5836L94.903 18.5836ZM93.2244 15.9952H88.9031C88.9016 15.4096 89.1333 14.8478 89.5466 14.4344C89.96 14.0211 90.5207 13.7905 91.1043 13.794C91.6833 13.7815 92.2412 14.012 92.6436 14.4298C93.0461 14.8476 93.2566 15.415 93.2244 15.9952ZM11.5213 3.61511C12.2961 2.68189 12.6778 1.4824 12.5853 0.27136C11.4017 0.396101 10.3083 0.963728 9.52311 1.86114C8.74774 2.74656 8.35494 3.90492 8.43123 5.08109C9.63074 5.09349 10.7697 4.55317 11.5213 3.61511ZM14.1267 11.3645C14.1476 9.73941 14.9967 8.23832 16.3765 7.38714C15.5021 6.13408 14.09 5.36809 12.5662 5.32025C11.5856 5.21697 10.6233 5.60019 9.83685 5.91338C9.33759 6.1122 8.90919 6.2828 8.59197 6.2828C8.2311 6.2828 7.79041 6.10519 7.29662 5.90618C6.65094 5.64595 5.91448 5.34913 5.147 5.36498C3.36491 5.42275 1.7438 6.41476 0.876774 7.97807C-0.969583 11.1856 0.407633 15.8996 2.17629 18.4923C3.06118 19.7619 4.09537 21.1801 5.44859 21.1298C6.06245 21.1042 6.49802 20.9203 6.94792 20.7303C7.46854 20.5104 8.00834 20.2825 8.86578 20.2825C9.67427 20.2825 10.1909 20.5033 10.6868 20.7153C11.1621 20.9184 11.6183 21.1134 12.2941 21.0978C13.715 21.0746 14.6102 19.8226 15.4641 18.541C16.0999 17.6363 16.5891 16.6365 16.9137 15.5786C15.2261 14.8624 14.1287 13.2031 14.1267 11.3645Z">
    </path>
</svg>