<svg viewBox="0 0 105 24" fill="white" xmlns="http://www.w3.org/2000/svg">
    <path
        d="M0.449659 0.378522C0.139006 0.743312 -0.0177921 1.21031 0.0112268 1.68431V22.3158C-0.0177921 22.7898 0.139006 23.2568 0.449659 23.6216L0.516377 23.6869L12.3255 12.14V11.8695L0.516377 0.313232L0.449659 0.378522Z"
        fill="url(#paint0_linear)"></path>
    <path
        d="M16.2359 15.992L12.3281 12.1399V11.8695L16.2359 8.00806L16.3217 8.05469L21.0015 10.6569C22.3358 11.3938 22.3358 12.6063 21.0015 13.3525L16.3407 15.9454L16.2359 15.992Z"
        fill="url(#paint1_linear)"></path>
    <path d="M16.3393 15.936L12.3172 12L0.441406 23.6215C1.00252 24.1042 1.83527 24.1277 2.42388 23.6775L16.3489 15.936"
        fill="url(#paint2_linear)"></path>
    <path
        d="M16.3411 8.06398L2.41607 0.322505C1.82745 -0.127736 0.994708 -0.104229 0.433594 0.378468L12.3189 12L16.3411 8.06398Z"
        fill="url(#paint3_linear)"></path>
    <path opacity="0.2"
        d="M16.225 15.8521L2.41435 23.5469C1.84919 23.9604 1.07328 23.9604 0.508124 23.5469L0.441406 23.6122L0.508124 23.6775C1.07222 24.0941 1.85025 24.0941 2.41435 23.6775L16.3393 15.936L16.225 15.8521Z"
        fill="black"></path>
    <path opacity="0.12" fill-rule="evenodd" clip-rule="evenodd"
        d="M16.2336 15.8521L20.9992 13.2125C21.4916 12.9746 21.8437 12.5268 21.9523 12C21.9032 12.5824 21.5396 13.0946 20.9992 13.3431L16.3194 15.936L16.2336 15.8521ZM0.00915323 22.3667C0.0248916 22.7771 0.178789 23.1729 0.449659 23.4909L0.516377 23.5656L0.449659 23.6308C0.148111 23.2767 -0.00846846 22.8263 0.00915323 22.3667ZM0.00915323 22.3667C0.00968531 22.3528 0.0103762 22.3389 0.0112268 22.3251V22.1852C0.00751049 22.2459 0.00684169 22.3064 0.00915323 22.3667Z"
        fill="black"></path>
    <path opacity="0.25"
        d="M2.42091 0.453767L20.9971 10.7882C21.4896 11.026 21.8416 11.4739 21.9502 12.0007C21.9011 11.4183 21.5376 10.906 20.9971 10.6576L2.42091 0.323188C1.08655 -0.413651 0 0.201936 0 1.69427V1.83417C0.0285934 0.332515 1.09608 -0.283072 2.42091 0.453767V0.453767Z">
    </path>
    <path fill-rule="evenodd" clip-rule="evenodd"
        d="M55.0189 4.74409C53.9773 3.64005 53.9773 1.91386 55.0189 0.809813C55.5328 0.291502 56.232 0 56.9613 0C57.6907 0 58.3899 0.291502 58.9038 0.809813C59.9498 1.91208 59.9498 3.64182 58.9038 4.74409C57.8292 5.81406 56.0934 5.81406 55.0189 4.74409ZM35.7737 2.99342C35.804 3.64875 35.5647 4.28787 35.1115 4.76164C34.6051 5.28839 33.8988 5.57451 33.1691 5.54849C32.0499 5.53972 31.0449 4.85996 30.619 3.82352C30.193 2.78708 30.429 1.59594 31.2179 0.800838C31.7304 0.276851 32.4368 -0.0112005 33.1691 0.00514179C33.5424 0.00389647 33.9119 0.0791135 34.2551 0.226169C34.5746 0.355207 34.859 0.558201 35.085 0.81852L34.6171 1.2871C34.2598 0.861555 33.7235 0.629047 33.1691 0.659381C32.6119 0.656644 32.0775 0.881369 31.6894 1.28174C31.3012 1.68211 31.0927 2.22356 31.1119 2.78124C31.1001 3.62396 31.5957 4.39105 32.3682 4.72562C33.1408 5.06018 34.0384 4.8965 34.6436 4.31074C34.9153 4.01592 35.0719 3.63308 35.085 3.23213H33.1691V2.59557H35.7384C35.7619 2.72688 35.7738 2.86002 35.7737 2.99342ZM39.8201 0.78339H37.4362V2.46319H39.6082V3.09975H37.4362V4.77955H39.8201V5.43379H36.7299V0.12915H39.8201V0.78339ZM42.0335 5.43379H42.7134V0.78339H44.232V0.12915H40.5502V0.78339H42.0335V5.43379ZM46.8322 5.43372V0.129074H47.5121V5.43372H46.8322ZM49.846 5.43379H50.5259V0.78339H52.0003V0.12915H48.3627V0.78339H49.846V5.43379ZM58.3897 4.30201C57.5939 5.09556 56.3072 5.09556 55.5114 4.30201C54.7298 3.43928 54.7298 2.12342 55.5114 1.26068C56.3072 0.467141 57.5939 0.467141 58.3897 1.26068C59.1713 2.12342 59.1713 3.43928 58.3897 4.30201ZM60.6323 5.43379V0.12915H61.4622L64.0403 4.25793V0.12915H64.7202V5.43379H64.0138L61.3209 1.11051V5.43379H60.6323ZM36.063 15.9192V14.3278L41.4223 14.2836C41.4839 14.613 41.5135 14.9476 41.5106 15.2827C41.5522 16.6581 41.0583 17.9959 40.1333 19.0136C39.0762 20.122 37.592 20.7184 36.063 20.6492C33.9255 20.7325 31.9137 19.6381 30.8201 17.797C29.7266 15.956 29.7266 13.6634 30.8201 11.8223C31.9137 9.98126 33.9255 8.88683 36.063 8.97013C37.5646 8.95709 39.0075 9.55352 40.0626 10.6234L38.9413 11.7462C38.1677 10.9983 37.1294 10.5882 36.0542 10.6057C33.7136 10.6057 31.8162 12.5057 31.8162 14.8494C31.8162 17.1932 33.7136 19.0932 36.0542 19.0932C37.1548 19.1371 38.2227 18.7132 38.9943 17.9261C39.5063 17.376 39.8174 16.6688 39.8772 15.9192H36.063ZM42.1165 16.9252C42.1132 14.8554 43.7876 13.1745 45.8575 13.1696H45.8486C46.8505 13.1504 47.8173 13.5387 48.5275 14.2456C49.2378 14.9524 49.6306 15.9174 49.6161 16.9193C49.6161 18.989 47.939 20.6673 45.8692 20.6689C43.7994 20.6706 42.1197 18.9949 42.1165 16.9252ZM54.0758 13.1696C52.0072 13.1794 50.3372 14.8624 50.3437 16.931C50.3502 18.9996 52.0307 20.6722 54.0993 20.6689C56.168 20.6657 57.8432 18.9879 57.8433 16.9193C57.8578 15.9174 57.465 14.9524 56.7547 14.2456C56.0445 13.5387 55.0777 13.1504 54.0758 13.1696ZM54.266 19.2942C53.2835 19.363 52.3589 18.8238 51.9343 17.9347C51.5098 17.0455 51.6716 15.9871 52.3424 15.2655C53.0132 14.544 54.0567 14.3061 54.9737 14.6656C55.8907 15.0251 56.4948 15.9089 56.4972 16.8943C56.5275 17.5107 56.3076 18.1132 55.8875 18.5651C55.4674 19.017 54.8826 19.2799 54.266 19.2942ZM46.0753 19.2936C45.0923 19.3662 44.165 18.8297 43.7374 17.9411C43.3099 17.0525 43.4692 15.9927 44.139 15.2692C44.8089 14.5457 45.8529 14.3059 46.771 14.6646C47.6892 15.0232 48.2946 15.9074 48.2972 16.8936C48.3275 17.5101 48.1076 18.1126 47.6875 18.5644C47.2674 19.0163 46.6826 19.2793 46.066 19.2936H46.0753ZM76.0649 15.5655C75.5935 14.1767 74.3149 13.2235 72.8511 13.1696C71.8749 13.1676 70.9415 13.5704 70.2724 14.2822C69.6034 14.9941 69.2584 15.9514 69.3194 16.927C69.2977 17.9254 69.6824 18.8898 70.3851 19.5984C71.0878 20.3071 72.0481 20.6991 73.0453 20.6845C74.2998 20.6912 75.4739 20.0669 76.1708 19.0223L74.8906 18.1382C74.5019 18.7871 73.801 19.1834 73.0453 19.1815C72.2627 19.2114 71.5414 18.7591 71.2265 18.041L76.2503 15.9633L76.0649 15.5655ZM71.4692 15.3123C71.1005 15.7248 70.913 16.2685 70.9492 16.821L74.3043 15.4241C74.0403 14.9031 73.4914 14.59 72.9093 14.6284C72.357 14.6533 71.8379 14.8998 71.4692 15.3123ZM66.8633 20.4636H68.5143V9.41223H66.8633V20.4636ZM64.1003 14.0095H64.1621V13.3907H65.6807V20.0833C65.6807 22.8594 64.0827 23.9999 62.1491 23.9999C60.6916 24.0087 59.3747 23.1307 58.8205 21.7808L60.2596 21.1796C60.5605 21.9674 61.307 22.4949 62.1491 22.5146C63.3852 22.5146 64.1533 21.7455 64.1533 20.3044V19.7651H64.1003C63.6041 20.3382 62.88 20.6619 62.1226 20.6492C60.1185 20.5519 58.5435 18.8965 58.5435 16.8873C58.5435 14.8781 60.1185 13.2227 62.1226 13.1254C62.8775 13.1244 63.597 13.4461 64.1003 14.0095ZM62.2813 19.2081L62.2786 19.2079C62.8501 19.1842 63.3874 18.9282 63.7663 18.4989C64.1466 18.068 64.3342 17.5001 64.2855 16.9271C64.3291 16.3568 64.1409 15.793 63.7636 15.3636C63.3863 14.9341 62.8518 14.6754 62.2813 14.6461C61.1008 14.7503 60.1953 15.7404 60.1953 16.9271C60.1953 18.1129 61.0993 19.1024 62.2786 19.2079L62.2725 19.2081H62.2813ZM79.8546 9.41219H83.8013H83.8101C85.0927 9.31992 86.3193 9.95281 86.9887 11.0522C87.6581 12.1516 87.6581 13.5334 86.9887 14.6328C86.3193 15.7322 85.0927 16.3651 83.8101 16.2729H81.5057V20.4635H79.8546V9.41219ZM83.8053 14.7168H81.5009V10.9505H83.8406C84.8865 10.9505 85.7344 11.7996 85.7344 12.8469C85.7344 13.8943 84.8865 14.7433 83.8406 14.7433L83.8053 14.7168ZM91.0427 14.8141C91.5995 13.7152 92.7544 13.0519 93.9828 13.1254L94.0269 13.1519C95.9076 13.1519 97.3732 14.2748 97.3732 16.211V20.4635H95.7839V19.5794H95.731C95.2715 20.2944 94.4589 20.7012 93.612 20.6403C92.9247 20.6912 92.2461 20.4615 91.7306 20.0036C91.2151 19.5457 90.9064 18.8984 90.8749 18.209C90.8749 16.6088 92.473 15.7247 94.0534 15.7247C94.6535 15.7222 95.2448 15.8679 95.7751 16.1491V16.0341C95.733 15.6094 95.5223 15.2194 95.1902 14.9517C94.8582 14.6841 94.4327 14.5612 94.0093 14.6107C93.3922 14.5602 92.8036 14.8792 92.5083 15.4241L91.0427 14.8141ZM93.7812 19.1817C93.2427 19.1817 92.4922 18.9076 92.4922 18.2445C92.4922 17.3604 93.4281 17.0686 94.258 17.0686C94.7825 17.0557 95.3009 17.1839 95.759 17.44C95.6448 18.4296 94.82 19.1839 93.8254 19.2082L93.7812 19.1817ZM101.275 18.1826L103.164 13.3907H105.001L100.48 23.8144H98.7587L100.436 20.0923L97.4961 13.3907H99.2619L101.222 18.1826H101.275ZM88.3237 20.4635H89.9747V9.41216H88.3237V20.4635Z">
    </path>
    <linearGradient id="paint0_linear" x1="7.15312" y1="-13.7044" x2="-11.701" y2="-8.5804"
        gradientUnits="userSpaceOnUse">
        <stop stop-color="#00A0FF"></stop>
        <stop offset="0.01" stop-color="#00A1FF"></stop>
        <stop offset="0.26" stop-color="#00BEFF"></stop>
        <stop offset="0.51" stop-color="#00D2FF"></stop>
        <stop offset="0.76" stop-color="#00DFFF"></stop>
        <stop offset="1" stop-color="#00E3FF"></stop>
    </linearGradient>
    <linearGradient id="paint1_linear" x1="22.7457" y1="2.48614" x2="-0.310157" y2="2.48614"
        gradientUnits="userSpaceOnUse">
        <stop stop-color="#FFE000"></stop>
        <stop offset="0.41" stop-color="#FFBD00"></stop>
        <stop offset="0.78" stop-color="#FFA500"></stop>
        <stop offset="1" stop-color="#FF9C00"></stop>
    </linearGradient>
    <linearGradient id="paint2_linear" x1="0.0924626" y1="5.96308" x2="-14.616" y2="31.2455"
        gradientUnits="userSpaceOnUse">
        <stop stop-color="#FF3A44"></stop>
        <stop offset="1" stop-color="#C31162"></stop>
    </linearGradient>
    <linearGradient id="paint3_linear" x1="-8.83065" y1="-2.83377" x2="-2.26551" y2="8.45598"
        gradientUnits="userSpaceOnUse">
        <stop stop-color="#32A071"></stop>
        <stop offset="0.07" stop-color="#2DA771"></stop>
        <stop offset="0.48" stop-color="#15CF74"></stop>
        <stop offset="0.8" stop-color="#06E775"></stop>
        <stop offset="1" stop-color="#00F076"></stop>
    </linearGradient>
</svg>