<svg viewBox="0 0 24 24" fill="currentColor" xmlns="http://www.w3.org/2000/svg">
    <path
        d="M11.993 0C5.373 0 0 5.373 0 11.993c0 6.634 5.373 11.993 11.993 11.993 6.634 0 11.993-5.373 11.993-11.993C24 5.373 18.626 0 11.993 0Zm5.502 17.309a.745.745 0 0 1-1.032.243c-2.822-1.72-6.362-2.106-10.545-1.16a.741.741 0 1 1-.33-1.447c4.57-1.046 8.497-.602 11.649 1.332a.725.725 0 0 1 .258 1.032Zm1.476-3.267a.948.948 0 0 1-1.29.315c-3.224-1.992-8.138-2.565-11.95-1.404a.93.93 0 0 1-1.16-.616.927.927 0 0 1 .63-1.16c4.356-1.32 9.772-.689 13.483 1.59a.933.933 0 0 1 .287 1.275Zm.129-3.41C15.23 8.339 8.855 8.124 5.158 9.242c-.587.186-1.218-.158-1.404-.745-.186-.588.158-1.218.745-1.404C8.74 5.803 15.79 6.06 20.232 8.697c.53.316.702 1.003.387 1.533-.301.545-.99.717-1.52.402Z">
    </path>
</svg>