<svg viewBox="0 0 97 24" fill="white" xmlns="http://www.w3.org/2000/svg">
    <path fill-rule="evenodd" clip-rule="evenodd"
        d="M12.8211 2.8231L12.8206 2.82318L12.8181 2.82356C12.2053 2.91976 11.5934 3.0158 10.9828 3.11127V12.0002C12.8692 11.9942 14.7666 11.9375 16.6635 11.881C18.669 11.8211 20.6741 11.7613 22.6654 11.7613V1.3335C19.394 1.79139 16.0942 2.30934 12.8211 2.8231ZM6.87851 3.74479L6.87851 3.74479L6.8785 3.74479C5.03463 3.96427 3.2042 4.18215 1.33804 4.47395H1.33203V12.0002C3.26687 12.0084 5.16346 12.0057 7.07272 12.0029H7.07316H7.0736C8.0327 12.0016 8.995 12.0002 9.96695 12.0002V3.36528C8.92775 3.50086 7.90106 3.62307 6.87851 3.74479ZM1.33203 12.9277H9.96695V20.8051C8.37969 20.5744 6.72482 20.3762 5.07778 20.1789L5.07771 20.1789C3.81316 20.0274 2.55322 19.8765 1.33203 19.7118V12.9277ZM22.6654 12.8199L10.9828 12.9277V21.0244C14.7181 21.5241 18.9359 22.0925 22.6654 22.6668V12.8199Z">
    </path>
    <path
        d="M32.4502 7.72314V0.61377H34.457C35.0755 0.61377 35.6224 0.750488 36.0977 1.02393C36.5729 1.29736 36.9391 1.68636 37.1963 2.19092C37.4567 2.69548 37.5885 3.2749 37.5918 3.9292V4.3833C37.5918 5.05387 37.4616 5.64144 37.2012 6.146C36.944 6.65055 36.5745 7.03792 36.0928 7.30811C35.6143 7.57829 35.056 7.71663 34.418 7.72314H32.4502ZM33.3877 1.38525V6.95654H34.374C35.0967 6.95654 35.6582 6.73193 36.0586 6.28271C36.4622 5.8335 36.6641 5.19385 36.6641 4.36377V3.94873C36.6641 3.14144 36.4736 2.51481 36.0928 2.06885C35.7152 1.61963 35.1781 1.39176 34.4814 1.38525H33.3877Z">
    </path>
    <path
        d="M38.6318 5.03271C38.6318 4.51514 38.7327 4.04964 38.9346 3.63623C39.1396 3.22282 39.4229 2.90381 39.7842 2.6792C40.1488 2.45459 40.5638 2.34229 41.0293 2.34229C41.7487 2.34229 42.3298 2.59131 42.7725 3.08936C43.2184 3.5874 43.4414 4.24984 43.4414 5.07666V5.14014C43.4414 5.65446 43.3421 6.1167 43.1436 6.52686C42.9482 6.93376 42.6667 7.25114 42.2988 7.479C41.9342 7.70687 41.5143 7.8208 41.0391 7.8208C40.3229 7.8208 39.7419 7.57178 39.2959 7.07373C38.8532 6.57568 38.6318 5.9165 38.6318 5.09619V5.03271ZM39.54 5.14014C39.54 5.72607 39.6751 6.19645 39.9453 6.55127C40.2188 6.90609 40.5833 7.0835 41.0391 7.0835C41.498 7.0835 41.8626 6.90446 42.1328 6.54639C42.403 6.18506 42.5381 5.6805 42.5381 5.03271C42.5381 4.45329 42.3997 3.98454 42.123 3.62646C41.8496 3.26514 41.485 3.08447 41.0293 3.08447C40.5833 3.08447 40.2236 3.26188 39.9502 3.6167C39.6768 3.97152 39.54 4.47933 39.54 5.14014Z">
    </path>
    <path
        d="M49.252 6.47803L50.2676 2.43994H51.1709L49.6328 7.72314H48.9004L47.6162 3.71924L46.3662 7.72314H45.6338L44.1006 2.43994H44.999L46.0391 6.39502L47.2695 2.43994H47.9971L49.252 6.47803Z">
    </path>
    <path
        d="M52.9482 2.43994L52.9775 3.104C53.3812 2.59619 53.9085 2.34229 54.5596 2.34229C55.6761 2.34229 56.2393 2.97217 56.249 4.23193V7.72314H55.3457V4.22705C55.3424 3.84619 55.2546 3.56462 55.082 3.38232C54.9128 3.20003 54.6475 3.10889 54.2861 3.10889C53.9932 3.10889 53.736 3.18701 53.5146 3.34326C53.2933 3.49951 53.1208 3.70459 52.9971 3.9585V7.72314H52.0938V2.43994H52.9482Z">
    </path>
    <path d="M58.5928 7.72314H57.6895V0.223145H58.5928V7.72314Z"></path>
    <path
        d="M59.8037 5.03271C59.8037 4.51514 59.9046 4.04964 60.1064 3.63623C60.3115 3.22282 60.5947 2.90381 60.9561 2.6792C61.3206 2.45459 61.7357 2.34229 62.2012 2.34229C62.9206 2.34229 63.5016 2.59131 63.9443 3.08936C64.3903 3.5874 64.6133 4.24984 64.6133 5.07666V5.14014C64.6133 5.65446 64.514 6.1167 64.3154 6.52686C64.1201 6.93376 63.8385 7.25114 63.4707 7.479C63.1061 7.70687 62.6862 7.8208 62.2109 7.8208C61.4948 7.8208 60.9137 7.57178 60.4678 7.07373C60.0251 6.57568 59.8037 5.9165 59.8037 5.09619V5.03271ZM60.7119 5.14014C60.7119 5.72607 60.847 6.19645 61.1172 6.55127C61.3906 6.90609 61.7552 7.0835 62.2109 7.0835C62.6699 7.0835 63.0345 6.90446 63.3047 6.54639C63.5749 6.18506 63.71 5.6805 63.71 5.03271C63.71 4.45329 63.5716 3.98454 63.2949 3.62646C63.0215 3.26514 62.6569 3.08447 62.2012 3.08447C61.7552 3.08447 61.3955 3.26188 61.1221 3.6167C60.8486 3.97152 60.7119 4.47933 60.7119 5.14014Z">
    </path>
    <path
        d="M69.0078 7.72314C68.9557 7.61898 68.9134 7.43343 68.8809 7.1665C68.4609 7.6027 67.9596 7.8208 67.377 7.8208C66.8561 7.8208 66.4281 7.67432 66.0928 7.38135C65.7607 7.08512 65.5947 6.71077 65.5947 6.2583C65.5947 5.70817 65.8031 5.28174 66.2197 4.979C66.6396 4.67301 67.2288 4.52002 67.9873 4.52002H68.8662V4.10498C68.8662 3.78923 68.7718 3.53857 68.583 3.35303C68.3942 3.16423 68.1159 3.06982 67.748 3.06982C67.4258 3.06982 67.1556 3.1512 66.9375 3.31396C66.7194 3.47673 66.6104 3.67367 66.6104 3.90479H65.7021C65.7021 3.64111 65.7949 3.38721 65.9805 3.14307C66.1693 2.89567 66.4232 2.70036 66.7422 2.55713C67.0645 2.4139 67.4176 2.34229 67.8018 2.34229C68.4105 2.34229 68.8874 2.49528 69.2324 2.80127C69.5775 3.104 69.7565 3.5223 69.7695 4.05615V6.48779C69.7695 6.97282 69.8314 7.35856 69.9551 7.64502V7.72314H69.0078ZM67.5088 7.03467C67.792 7.03467 68.0605 6.96143 68.3145 6.81494C68.5684 6.66846 68.7523 6.47803 68.8662 6.24365V5.15967H68.1582C67.0514 5.15967 66.498 5.48356 66.498 6.13135C66.498 6.41455 66.5924 6.6359 66.7812 6.79541C66.9701 6.95492 67.2126 7.03467 67.5088 7.03467Z">
    </path>
    <path
        d="M70.9658 5.0376C70.9658 4.22705 71.1579 3.57601 71.542 3.08447C71.9261 2.58968 72.429 2.34229 73.0508 2.34229C73.6693 2.34229 74.1592 2.55387 74.5205 2.97705V0.223145H75.4238V7.72314H74.5938L74.5498 7.15674C74.1885 7.59945 73.6855 7.8208 73.041 7.8208C72.429 7.8208 71.9294 7.57015 71.542 7.06885C71.1579 6.56755 70.9658 5.91325 70.9658 5.10596V5.0376ZM71.8691 5.14014C71.8691 5.7391 71.9928 6.20785 72.2402 6.54639C72.4876 6.88493 72.8294 7.0542 73.2656 7.0542C73.8385 7.0542 74.2568 6.79704 74.5205 6.28271V3.85596C74.2503 3.35791 73.8353 3.10889 73.2754 3.10889C72.8327 3.10889 72.4876 3.27979 72.2402 3.62158C71.9928 3.96338 71.8691 4.46956 71.8691 5.14014Z">
    </path>
    <path
        d="M79.7549 7.72314V3.13818H78.9199V2.43994H79.7549V1.89795C79.7549 1.33154 79.9062 0.893717 80.209 0.584473C80.5117 0.275228 80.9398 0.120605 81.4932 0.120605C81.7015 0.120605 81.9082 0.148275 82.1133 0.203613L82.0645 0.936035C81.9115 0.906738 81.7487 0.89209 81.5762 0.89209C81.2832 0.89209 81.057 0.978353 80.8975 1.15088C80.738 1.32015 80.6582 1.56429 80.6582 1.8833V2.43994H81.7861V3.13818H80.6582V7.72314H79.7549Z">
    </path>
    <path
        d="M82.5479 5.03271C82.5479 4.51514 82.6488 4.04964 82.8506 3.63623C83.0557 3.22282 83.3389 2.90381 83.7002 2.6792C84.0648 2.45459 84.4798 2.34229 84.9453 2.34229C85.6647 2.34229 86.2458 2.59131 86.6885 3.08936C87.1344 3.5874 87.3574 4.24984 87.3574 5.07666V5.14014C87.3574 5.65446 87.2581 6.1167 87.0596 6.52686C86.8643 6.93376 86.5827 7.25114 86.2148 7.479C85.8503 7.70687 85.4303 7.8208 84.9551 7.8208C84.2389 7.8208 83.6579 7.57178 83.2119 7.07373C82.7692 6.57568 82.5479 5.9165 82.5479 5.09619V5.03271ZM83.4561 5.14014C83.4561 5.72607 83.5911 6.19645 83.8613 6.55127C84.1348 6.90609 84.4993 7.0835 84.9551 7.0835C85.4141 7.0835 85.7786 6.90446 86.0488 6.54639C86.319 6.18506 86.4541 5.6805 86.4541 5.03271C86.4541 4.45329 86.3158 3.98454 86.0391 3.62646C85.7656 3.26514 85.401 3.08447 84.9453 3.08447C84.4993 3.08447 84.1396 3.26188 83.8662 3.6167C83.5928 3.97152 83.4561 4.47933 83.4561 5.14014Z">
    </path>
    <path
        d="M91.0439 3.25049C90.9072 3.2277 90.7591 3.21631 90.5996 3.21631C90.0072 3.21631 89.6051 3.46859 89.3936 3.97314V7.72314H88.4902V2.43994H89.3691L89.3838 3.05029C89.68 2.57829 90.0999 2.34229 90.6436 2.34229C90.8193 2.34229 90.9528 2.36507 91.0439 2.41064V3.25049Z">
    </path>
    <path
        d="M41.7031 20.9106L43.4531 12.3481H45.4141L42.7891 23.7231H40.8984L38.7344 15.4185L36.5234 23.7231H34.625L32 12.3481H33.9609L35.7266 20.895L37.8984 12.3481H39.5547L41.7031 20.9106Z">
    </path>
    <path
        d="M48.6953 23.7231H46.7969V15.27H48.6953V23.7231ZM46.6797 13.0747C46.6797 12.783 46.7708 12.5409 46.9531 12.3481C47.1406 12.1554 47.4062 12.0591 47.75 12.0591C48.0938 12.0591 48.3594 12.1554 48.5469 12.3481C48.7344 12.5409 48.8281 12.783 48.8281 13.0747C48.8281 13.3612 48.7344 13.6007 48.5469 13.7935C48.3594 13.981 48.0938 14.0747 47.75 14.0747C47.4062 14.0747 47.1406 13.981 46.9531 13.7935C46.7708 13.6007 46.6797 13.3612 46.6797 13.0747Z">
    </path>
    <path
        d="M52.5312 15.27L52.5859 16.2466C53.2109 15.4914 54.0312 15.1138 55.0469 15.1138C56.8073 15.1138 57.7031 16.1216 57.7344 18.1372V23.7231H55.8359V18.2466C55.8359 17.7101 55.7188 17.3143 55.4844 17.0591C55.2552 16.7987 54.8776 16.6685 54.3516 16.6685C53.5859 16.6685 53.0156 17.0148 52.6406 17.7075V23.7231H50.7422V15.27H52.5312Z">
    </path>
    <path
        d="M59.3203 19.4341C59.3203 18.132 59.6224 17.0877 60.2266 16.3013C60.8307 15.5096 61.6406 15.1138 62.6562 15.1138C63.5521 15.1138 64.276 15.4263 64.8281 16.0513V11.7231H66.7266V23.7231H65.0078L64.9141 22.8481C64.3464 23.5356 63.5885 23.8794 62.6406 23.8794C61.651 23.8794 60.849 23.481 60.2344 22.6841C59.625 21.8872 59.3203 20.8039 59.3203 19.4341ZM61.2188 19.5981C61.2188 20.4575 61.3828 21.1294 61.7109 21.6138C62.0443 22.0929 62.5156 22.3325 63.125 22.3325C63.901 22.3325 64.4688 21.9862 64.8281 21.2935V17.6841C64.4792 17.007 63.9167 16.6685 63.1406 16.6685C62.526 16.6685 62.0521 16.9132 61.7188 17.4028C61.3854 17.8872 61.2188 18.619 61.2188 19.5981Z">
    </path>
    <path
        d="M68.3516 19.4185C68.3516 18.5903 68.5156 17.8455 68.8438 17.1841C69.1719 16.5174 69.6328 16.007 70.2266 15.6528C70.8203 15.2935 71.5026 15.1138 72.2734 15.1138C73.4141 15.1138 74.3385 15.481 75.0469 16.2153C75.7604 16.9497 76.1458 17.9237 76.2031 19.1372L76.2109 19.5825C76.2109 20.4159 76.0495 21.1606 75.7266 21.8169C75.4089 22.4731 74.9505 22.981 74.3516 23.3403C73.7578 23.6997 73.0703 23.8794 72.2891 23.8794C71.0964 23.8794 70.1406 23.4836 69.4219 22.6919C68.7083 21.895 68.3516 20.8351 68.3516 19.5122V19.4185ZM70.25 19.5825C70.25 20.4523 70.4297 21.1346 70.7891 21.6294C71.1484 22.119 71.6484 22.3638 72.2891 22.3638C72.9297 22.3638 73.4271 22.1138 73.7812 21.6138C74.1406 21.1138 74.3203 20.382 74.3203 19.4185C74.3203 18.5643 74.1354 17.8872 73.7656 17.3872C73.401 16.8872 72.9036 16.6372 72.2734 16.6372C71.6536 16.6372 71.1615 16.8846 70.7969 17.3794C70.4323 17.869 70.25 18.6034 70.25 19.5825Z">
    </path>
    <path
        d="M85.2422 21.106L86.5859 15.27H88.4375L86.1328 23.7231H84.5703L82.7578 17.9185L80.9766 23.7231H79.4141L77.1016 15.27H78.9531L80.3203 21.0435L82.0547 15.27H83.4844L85.2422 21.106Z">
    </path>
    <path
        d="M94.4453 21.4263C94.4453 21.0877 94.3047 20.8299 94.0234 20.6528C93.7474 20.4757 93.2865 20.3195 92.6406 20.1841C91.9948 20.0487 91.4557 19.8768 91.0234 19.6685C90.0755 19.2101 89.6016 18.5461 89.6016 17.6763C89.6016 16.9471 89.9089 16.3377 90.5234 15.8481C91.138 15.3586 91.9193 15.1138 92.8672 15.1138C93.8776 15.1138 94.6927 15.3638 95.3125 15.8638C95.9375 16.3638 96.25 17.0122 96.25 17.8091H94.3516C94.3516 17.4445 94.2161 17.1424 93.9453 16.9028C93.6745 16.658 93.3151 16.5356 92.8672 16.5356C92.4505 16.5356 92.1094 16.632 91.8438 16.8247C91.5833 17.0174 91.4531 17.2752 91.4531 17.5981C91.4531 17.8898 91.5755 18.1164 91.8203 18.2778C92.0651 18.4393 92.5599 18.6034 93.3047 18.77C94.0495 18.9315 94.6328 19.1268 95.0547 19.356C95.4818 19.5799 95.7969 19.8507 96 20.1685C96.2083 20.4862 96.3125 20.8716 96.3125 21.3247C96.3125 22.0851 95.9974 22.7023 95.3672 23.1763C94.737 23.645 93.9115 23.8794 92.8906 23.8794C92.1979 23.8794 91.5807 23.7544 91.0391 23.5044C90.4974 23.2544 90.0755 22.9106 89.7734 22.4731C89.4714 22.0356 89.3203 21.5643 89.3203 21.0591H91.1641C91.1901 21.507 91.3594 21.8534 91.6719 22.0981C91.9844 22.3377 92.3984 22.4575 92.9141 22.4575C93.4141 22.4575 93.7943 22.3638 94.0547 22.1763C94.3151 21.9836 94.4453 21.7336 94.4453 21.4263Z">
    </path>
</svg>