<svg width="760" height="750" viewBox="0 0 760 750" fill="none" xmlns="http://www.w3.org/2000/svg">
<g clip-path="url(#clip0_308_7175)">
<path d="M0.0496456 342.418V229.025C0.0496456 170.736 0.0496456 112.441 0.0496456 54.14C0.0496456 36.288 7.04721 21.8287 21.0423 10.9299C29.898 4.02027 40.0215 0.111847 51.4065 0.111847C96.4619 0.111847 141.515 0.138776 186.566 0.192628C248.6 0.192628 310.635 0.128416 372.673 0C378.434 0 382.616 1.94489 386.606 5.95273C414.459 33.9889 442.398 61.9506 470.421 89.8377C491.087 110.492 511.746 131.153 532.399 151.819C533.782 153.148 534.876 154.747 535.611 156.518C536.347 158.289 536.709 160.192 536.675 162.109C536.646 186.136 536.61 210.162 536.569 234.188C536.569 259.242 536.641 284.304 536.786 309.374C536.879 310.139 537.138 310.875 537.545 311.529C537.952 312.184 538.497 312.742 539.142 313.164C553.329 321.116 566.161 331.274 577.156 343.257C589.896 357.244 600.597 372.648 607.495 390.413C611.927 401.75 615.162 413.518 617.146 425.527C619.608 440.973 619.829 456.694 617.805 472.204C615.213 493.386 608.091 513.762 596.924 531.949C595.582 534.136 595.601 535.677 597.614 537.591C602.275 541.94 606.725 546.551 611.187 551.13C612.548 552.522 613.629 552.827 615.027 551.242C616.27 549.863 617.706 548.688 618.936 547.309C623.616 542.052 632.055 541.947 637.25 547.147C668.737 578.63 700.193 610.113 731.618 641.596C737.87 647.878 744.52 653.967 749.69 661.088C758.962 673.832 761.92 688.354 758.85 704.025C755.122 723.213 744.085 736.703 726.659 744.948C714.982 750.478 702.714 751.255 690.043 748.428C676.01 745.321 665.924 736.479 656.199 726.68C623.73 693.954 591.137 661.368 558.419 628.92C551.875 622.451 550.608 613.864 559.768 606.476C562.993 603.879 563.583 603.99 559.998 600.536C555.523 596.248 551.161 591.836 546.854 587.387C545.394 585.877 544.368 585.853 542.336 586.71C537.656 588.705 536.351 591.774 536.544 596.795C536.979 608.265 536.687 619.786 536.681 631.25C536.681 654.079 522.3 674.535 500.636 681.861C495.66 683.58 490.439 684.487 485.175 684.545C340.389 684.69 195.59 684.667 50.7789 684.477C29.6122 684.427 14.5047 672.851 5.04613 654.029C1.16205 646.3 -0.0559923 638.023 -0.0187052 629.404C0.1118 603.102 0.0310028 576.805 0.0310028 550.49V342.418H0.0496456ZM511.91 600.741C484.826 610.315 455.599 612.095 427.554 605.879C412.512 602.59 398.017 597.173 384.505 589.792C364.153 578.616 346.511 563.098 332.832 544.339C325.001 533.675 318.619 522.02 313.852 509.679C312.752 506.864 311.23 506.056 308.334 506.069C282.351 506.174 256.368 506.131 230.379 506.131H166.686C137.683 506.131 108.68 506.174 79.6827 506.056C76.7618 506.056 73.5551 505.646 70.9823 504.379C66.2096 502.024 64.1463 496.077 65.4638 491.106C67.1666 484.799 71.7654 482.196 77.1906 481.941C82.6159 481.686 88.1593 481.891 93.6467 481.891H281.015C288.162 481.891 295.308 481.848 302.455 481.891C304.655 481.891 305.525 481.034 305.084 478.884C302.947 468.235 302.026 457.379 302.337 446.523C302.455 443.015 302.791 439.519 303.344 436.053C304.392 428.816 305.537 421.591 306.78 414.379C307.296 411.384 308.135 408.445 308.899 405.146C307.545 405.077 306.544 404.978 305.537 404.978H149.242C125.42 404.978 101.597 404.978 77.7748 404.978C70.6157 404.978 64.8859 399.603 65.0412 392.936C65.209 385.945 71.206 380.869 77.868 380.981C94.9518 381.279 112.048 380.981 129.132 381.099C145.159 381.192 161.192 381.559 177.22 381.627C184.056 381.658 190.948 381.086 197.815 381.08C236.759 381.03 275.704 381.053 314.648 381.148C317.755 381.148 319.222 379.98 320.57 377.389C338.919 342.05 370.022 315.011 407.574 301.756C422.395 296.543 437.565 293.274 453.257 292.852C463.679 292.572 474.15 292.23 484.466 294.561C490.289 295.872 496.168 296.928 501.997 298.22C505.279 298.947 508.504 299.917 512.121 300.874C512.22 299.053 512.363 297.643 512.363 296.226C512.363 256.769 512.363 217.312 512.363 177.855C512.363 173.089 512.363 173.083 507.59 173.083C476.723 173.083 445.855 173.126 414.994 173.027C407.195 173.001 399.534 170.977 392.74 167.149C373.729 156.498 363.6 140.392 363.668 118.228C363.761 88.4023 363.668 58.5766 363.668 28.7508C363.668 23.9973 363.668 23.9911 358.951 23.9911H147.384C116.415 23.9911 85.4456 24.0056 54.4765 24.0346C51.3693 24.0346 48.1563 24.1278 45.2666 25.0474C32.5454 29.1112 23.9942 39.7988 23.9942 54.1151C23.9942 152.08 23.959 250.05 23.8886 348.023C23.8886 376.19 24.0067 404.357 24.0129 432.53C24.0129 498.192 23.9984 563.85 23.9694 629.504C23.9694 634.351 24.4728 639.067 26.5546 643.379C32.1166 654.899 41.4695 660.69 54.2652 660.74C68.2417 660.79 82.2306 660.74 96.2009 660.74H305.009C363.94 660.74 422.874 660.703 481.813 660.628C486.346 660.671 490.841 659.809 495.037 658.093C505.272 653.638 511.518 645.535 512.164 634.251C512.786 623.924 512.351 613.547 512.351 603.183C512.266 602.359 512.119 601.542 511.91 600.741V600.741ZM595.029 451.233C595.955 377.426 535.432 316.688 461.547 316.582C386.494 316.476 326.58 375.351 326.412 450.512C326.244 525.977 385.295 584.765 460.267 585.306C535.438 585.853 595.452 525.002 595.029 451.233ZM736.099 693.424C735.825 691.287 735.658 689.131 735.266 687.012C733.737 678.723 728.896 672.509 723.048 666.699C692.038 635.879 661.112 604.97 630.272 573.972C628.712 572.406 627.829 572.344 626.294 573.885C612.295 587.969 598.252 602.01 584.166 616.008C582.413 617.748 582.575 618.953 584.247 620.618C616.326 652.631 648.387 684.659 680.429 716.701C685.156 721.396 691.246 724.477 697.83 725.506C717.698 728.942 735.956 713.594 736.13 693.424H736.099ZM494.267 149.222L387.681 42.6633C387.681 42.8994 387.607 43.5146 387.607 44.1297C387.607 69.813 387.607 95.4797 387.607 121.13C387.566 122.061 387.621 122.994 387.768 123.914C391.192 140.305 402.758 149.011 418.748 149.16C442.984 149.39 467.19 149.222 491.414 149.222H494.267ZM595.781 570.716L581.78 555.685L565.038 571.803C569.083 575.886 573.595 580.503 578.262 585.014C578.772 585.505 580.593 585.455 581.139 584.939C586.242 580.155 591.201 575.209 595.781 570.716Z" fill="black"/>
<path d="M206.54 583.553C249.628 583.553 292.703 583.553 335.765 583.553C341.7 583.553 345.938 586.66 347.573 592.122C348.339 594.514 348.274 597.095 347.388 599.446C346.502 601.797 344.848 603.779 342.694 605.072C340.219 606.513 337.412 607.288 334.547 607.321C285.979 607.453 237.414 607.485 188.854 607.414C151.894 607.414 114.932 607.414 77.9678 607.414C71.1877 607.414 66.1601 603.195 65.1534 596.764C64.1466 590.333 69.5036 583.603 76.0599 583.591C98.9418 583.547 121.824 583.628 144.706 583.647C165.305 583.647 185.908 583.647 206.515 583.647L206.54 583.553Z" fill="black"/>
<path d="M168.059 101.19C138.134 101.19 108.215 101.19 78.3025 101.19C71.336 101.19 67.3027 98.4312 65.5627 92.6028C63.313 85.1899 69.2479 77.4103 77.3703 77.3482C90.514 77.2363 103.664 77.2798 116.814 77.2798C163.821 77.284 210.821 77.3067 257.815 77.3482C264.328 77.3482 268.281 80.107 270.518 86.1405C272.966 92.7146 267.597 100.96 260.575 101.159C254.571 101.327 248.562 101.209 242.553 101.209H168.059V101.19Z" fill="black"/>
<path d="M256.748 202.995H180.011C172.554 202.995 167.744 199.267 166.445 192.053C165.556 187.082 169.503 180.135 175.593 179.11C177.648 178.78 179.726 178.622 181.807 178.638C232.145 178.613 282.483 178.613 332.82 178.638C335.303 178.584 337.783 178.837 340.203 179.39C344.392 180.477 348.009 185.709 348.145 190.282C348.282 194.856 344.74 200.38 340.452 201.672C338.202 202.39 335.859 202.778 333.498 202.822C307.913 202.902 282.327 202.871 256.748 202.871V202.995Z" fill="black"/>
<path d="M257.171 279.747C283.16 279.747 309.147 279.747 335.132 279.747C341.925 279.747 347.064 284.097 347.959 290.397C348.829 296.536 344.156 302.769 337.978 303.589C335.825 303.873 333.656 304.02 331.484 304.03C281.768 304.03 232.072 304.03 182.398 304.03C178.451 304.03 174.48 303.974 171.211 301.259C166.731 297.531 165.457 292.92 167.321 287.477C168.893 282.872 173.442 279.747 178.905 279.741C204.994 279.724 231.082 279.726 257.171 279.747Z" fill="black"/>
<path d="M138.852 332.682C135.235 332.682 132.551 331.035 130.195 328.699C124.465 323.025 118.698 317.39 113.099 311.586C111.036 309.442 109.718 309.101 107.438 311.505C101.845 317.458 96.0029 323.187 90.1053 328.848C84.3693 334.365 75.7559 333.496 71.4617 327.164C68.0686 322.137 68.7335 316.265 73.3261 311.667C79.0061 305.956 84.6489 300.209 90.4782 294.647C92.6719 292.553 92.8832 291.218 90.5403 289.005C84.8292 283.618 79.3542 277.951 73.8357 272.384C70.542 269.078 68.5098 265.393 69.7403 260.453C71.1821 254.65 75.1904 251.754 80.6965 251.015C84.4252 250.518 87.6816 252.369 90.3601 255.054C96.0588 260.77 101.932 266.325 107.407 272.247C109.712 274.733 110.974 274.217 113 272.141C118.593 266.35 124.329 260.69 130.046 255.017C135.248 249.853 142.432 249.71 147.447 254.6C152.189 259.242 152.145 266.754 147.186 271.856C141.481 277.709 135.757 283.55 129.829 289.179C127.548 291.336 127.84 292.628 129.916 294.635C135.873 300.385 141.729 306.238 147.484 312.195C148.809 313.521 149.801 315.142 150.379 316.926C150.957 318.709 151.103 320.605 150.806 322.456C150.51 324.307 149.779 326.061 148.673 327.575C147.567 329.089 146.118 330.32 144.445 331.165C142.78 332.048 140.716 332.197 138.852 332.682Z" fill="black"/>
<path d="M98.384 194.315C107.209 185.436 115.163 177.333 123.242 169.342C126.455 166.161 129.612 162.774 133.322 160.27C138.263 156.933 144.633 158.443 148.293 163.041C150.125 165.265 151.071 168.087 150.947 170.965C150.823 173.843 149.639 176.574 147.622 178.632C136.504 189.885 125.249 201.001 114.113 212.217C112.143 214.193 110.161 216.156 108.302 218.238C102.914 224.253 94.0897 223.588 88.8695 217.952C84.0346 212.72 78.7833 207.873 73.8179 202.759C67.6034 196.366 68.1565 189.916 73.2462 184.74C74.3008 183.663 75.5574 182.805 76.944 182.215C78.3306 181.624 79.82 181.313 81.3271 181.298C82.8341 181.284 84.3292 181.567 85.7269 182.131C87.1245 182.694 88.3973 183.528 89.4723 184.584C92.5485 187.468 95.1959 190.804 98.384 194.315Z" fill="black"/>
<path d="M575.993 451.14C577.199 513.811 524.487 566.572 460.931 566.398C396.71 566.217 345.273 515.054 345.254 450.723C345.254 387.12 397.145 335.633 461 335.484C523.53 335.335 577.597 387.816 575.993 451.14ZM552.117 451.245C552.738 400.442 511.337 360.084 462.361 359.55C410.376 358.984 369.143 399.659 369.329 450.941C369.497 502.514 409.102 541.549 459.601 542.319C512.04 543.127 552.397 501.166 552.117 451.245V451.245Z" fill="black"/>
</g>
<defs>
<clipPath id="clip0_308_7175">
<rect width="760" height="750" fill="white"/>
</clipPath>
</defs>
</svg>
