<?xml version="1.0" encoding="UTF-8"?>
<svg width="752pt" height="752pt" version="1.1" viewBox="0 0 752 752" xmlns="http://www.w3.org/2000/svg">
 <defs>
  <clipPath id="b">
   <path d="m450 384h162.79v228.79h-162.79z"/>
  </clipPath>
  <clipPath id="a">
   <path d="m139.21 139.21h429.79v429.79h-429.79z"/>
  </clipPath>
 </defs>
 <path d="m183.61 483.3v33.301c0 1.9609 0.78125 3.8438 2.168 5.2305 1.3867 1.3867 3.2695 2.168 5.2305 2.168h37c3.3906 0 6.3477-2.3008 7.1758-5.5859l6.4375-25.27 22.863-5.3633 0.003906-0.003906c2.7344-0.64063 4.8711-2.7773 5.5117-5.5117l5.2148-22.199 19.391-2.8477c1.5859-0.23438 3.0508-0.97266 4.1797-2.1094l19.758-19.906c19.629 6.0352 40.93 2.9336 58.027-8.4414 17.098-11.379 28.184-29.828 30.199-50.266s-5.25-40.699-19.797-55.199c-14.543-14.496-34.832-21.695-55.262-19.613-20.43 2.082-38.844 13.227-50.164 30.363-11.324 17.133-14.352 38.445-8.2539 58.055l-87.539 87.984c-1.375 1.3867-2.1445 3.2617-2.1445 5.2148zm14.801 3.0703 88.793-89.09c2.0625-2.0703 2.7148-5.1562 1.668-7.8828-5.9961-15.418-4.543-32.738 3.9375-46.938 8.4766-14.203 23.035-23.703 39.449-25.742 16.414-2.0391 32.852 3.6094 44.547 15.305 11.699 11.695 17.344 28.133 15.305 44.551-2.0391 16.414-11.535 30.969-25.738 39.449-14.203 8.4766-31.523 9.9297-46.941 3.9375-2.7344-1.0664-5.8398-0.41406-7.918 1.6641l-21.312 21.312-21.902 3.1445c-3.0078 0.43359-5.4414 2.6641-6.1406 5.6211l-5.3281 22.754-22.938 5.1445c-2.7461 0.64844-4.8828 2.8008-5.5117 5.5508l-6.1055 24.047h-23.863z"/>
 <path d="m355.25 396.91c1.3867 1.3906 3.2695 2.168 5.2344 2.168 1.9648 0 3.8477-0.77734 5.2344-2.168 7.4609-7.0938 11.742-16.898 11.875-27.191 0.12891-10.293-3.9023-20.203-11.18-27.484-7.2812-7.2773-17.191-11.309-27.484-11.18-10.293 0.13281-20.098 4.4141-27.191 11.875-1.3906 1.3867-2.168 3.2695-2.168 5.2344s0.77734 3.8477 2.168 5.2344zm0-43.512c3.4648 3.4688 5.7539 7.9375 6.543 12.777 0.78906 4.8398 0.039063 9.8047-2.1406 14.195l-31.375-31.375c4.3906-2.1797 9.3555-2.9297 14.195-2.1406 4.8398 0.78906 9.3086 3.0781 12.777 6.543z"/>
 <g clip-path="url(#b)">
  <path d="m455.14 384.95c-2.6914 1.1758-4.4336 3.8359-4.4375 6.7734v201.27-0.003906c0.003906 2.4961 1.2617 4.8203 3.3516 6.1836 2.0859 1.3672 4.7188 1.5859 7.0078 0.58984l39.922-17.391 11.098 25.898c1.6797 3.6914 6.0195 5.3438 9.7305 3.6992l53.98-23.27c3.6914-1.6836 5.3438-6.0234 3.6992-9.7305l-11.098-25.898 39.922-17.391c2.2891-1 3.918-3.082 4.3359-5.5469 0.41797-2.4609-0.43359-4.9648-2.2656-6.6641l-147.25-137.15c-2.1562-2.0039-5.293-2.543-7.9922-1.3711zm10.359 23.789 126.61 117.88-36.406 15.875c-3.6914 1.6797-5.3438 6.0195-3.6992 9.7305l11.098 25.898-40.402 17.574-11.098-25.898c-1.6797-3.6914-6.0234-5.3438-9.7305-3.6992l-36.371 15.836z"/>
 </g>
 <g clip-path="url(#a)">
  <path d="m183.91 568.39h243.89c4.0859 0 7.3984-3.3125 7.3984-7.4023 0-4.0859-3.3125-7.3984-7.3984-7.3984h-243.89c-7.9297 0-15.535-3.1484-21.141-8.7539-5.6055-5.6094-8.7539-13.211-8.7539-21.141v-251.29h399.58v173.89c0 4.0898 3.3125 7.4023 7.3984 7.4023 4.0898 0 7.4023-3.3125 7.4023-7.4023v-262.39c-0.011719-11.852-4.7227-23.215-13.102-31.594-8.3789-8.3789-19.742-13.09-31.594-13.102h-339.79c-11.852 0.011718-23.215 4.7227-31.594 13.102s-13.09 19.742-13.102 31.594v339.83c0.019531 11.844 4.7344 23.195 13.113 31.566 8.3789 8.3711 19.738 13.078 31.582 13.09zm0-414.38h339.83c7.9219 0.007812 15.516 3.1641 21.113 8.7695 5.5977 5.6016 8.7422 13.203 8.7422 21.125v73.699h-399.58v-73.699c0-7.9297 3.1484-15.535 8.7539-21.141s13.211-8.7539 21.141-8.7539z"/>
 </g>
 <path d="m501.8 228.01c5.8867 0 11.535-2.3398 15.695-6.5039 4.1641-4.1602 6.5039-9.8086 6.5039-15.695 0-5.8867-2.3398-11.535-6.5039-15.699-4.1602-4.1602-9.8086-6.5-15.695-6.5s-11.535 2.3398-15.699 6.5c-4.1602 4.1641-6.5 9.8125-6.5 15.699 0 5.8867 2.3398 11.535 6.5 15.695 4.1641 4.1641 9.8125 6.5039 15.699 6.5039zm0-29.598c2.9922 0 5.6914 1.8008 6.8359 4.5664 1.1445 2.7656 0.51172 5.9492-1.6055 8.0625-2.1133 2.1172-5.2969 2.75-8.0625 1.6055s-4.5664-3.8438-4.5664-6.8359c0-4.0859 3.3125-7.3984 7.3984-7.3984z"/>
 <path d="m442.6 228.01c5.8867 0 11.535-2.3398 15.699-6.5039 4.1641-4.1602 6.5-9.8086 6.5-15.695 0-5.8867-2.3359-11.535-6.5-15.699-4.1641-4.1602-9.8125-6.5-15.699-6.5-5.8867 0-11.531 2.3398-15.695 6.5-4.1641 4.1641-6.5039 9.8125-6.5039 15.699 0 5.8867 2.3398 11.535 6.5039 15.695 4.1641 4.1641 9.8086 6.5039 15.695 6.5039zm0-29.598c2.9922 0 5.6914 1.8008 6.8359 4.5664 1.1484 2.7656 0.51562 5.9492-1.6016 8.0625-2.1172 2.1172-5.3008 2.75-8.0664 1.6055s-4.5664-3.8438-4.5664-6.8359c0-4.0859 3.3125-7.3984 7.3984-7.3984z"/>
 <path d="m383.4 228.01c5.8867 0 11.531-2.3398 15.695-6.5039 4.1641-4.1602 6.5039-9.8086 6.5039-15.695 0-5.8867-2.3398-11.535-6.5039-15.699-4.1641-4.1602-9.8086-6.5-15.695-6.5-5.8906 0-11.535 2.3398-15.699 6.5-4.1641 4.1641-6.5 9.8125-6.5 15.699 0 5.8867 2.3359 11.535 6.5 15.695 4.1641 4.1641 9.8086 6.5039 15.699 6.5039zm0-29.598c2.9922 0 5.6914 1.8008 6.8359 4.5664 1.1445 2.7656 0.51172 5.9492-1.6055 8.0625-2.1172 2.1172-5.2969 2.75-8.0625 1.6055-2.7656-1.1445-4.5703-3.8438-4.5703-6.8359 0-4.0859 3.3125-7.3984 7.4023-7.3984z"/>
</svg>
