<svg width="1172" height="955" viewBox="0 0 1172 955" fill="none" xmlns="http://www.w3.org/2000/svg">
<g clip-path="url(#clip0_308_7184)">
<path d="M82.4796 843.51C51.9396 836.017 28.9196 818.857 13.4196 792.03C5.63739 778.785 1.17704 763.853 0.419621 748.51C-0.160379 736.7 0.179631 724.85 0.179631 713.02C0.179631 624.527 0.179631 536.04 0.179631 447.56C0.179631 440.12 -0.390387 432.63 0.379613 425.27C1.31214 416.202 3.08306 407.241 5.66962 398.5C8.40178 388.997 12.6061 379.981 18.1296 371.78C34.3796 347.9 56.8196 332.94 85.1296 327.41C94.0296 325.67 103.33 325.54 112.45 325.53C215.596 325.417 318.75 325.4 421.91 325.48C474.55 325.48 527.19 324.96 579.82 325.7C623.43 326.31 655.11 347.27 674.58 386.18C681.264 399.785 684.649 414.773 684.46 429.93C684.37 534.09 684.82 638.24 684.2 742.39C683.97 781.27 665.56 810.92 632.43 831.29C615.68 841.59 597.25 845.83 577.74 845.83C467.593 845.83 357.443 845.76 247.29 845.62C240.51 845.62 236.49 848.85 232.19 852.55C197.523 882.47 162.856 912.427 128.19 942.42C125.7 944.58 122.95 946.49 120.73 948.89C112.84 957.42 93.9196 956.99 86.4096 944.44C84.0411 940.298 82.7645 935.621 82.6996 930.85C82.4396 903.7 82.6996 876.53 82.7496 849.37C82.7796 847.41 82.5796 845.44 82.4796 843.51ZM128.27 882.44C137.9 874.05 146.33 866.54 154.95 859.26C160.74 854.35 166.95 849.9 172.71 844.99C178.81 839.81 184.57 834.23 190.62 828.99C196.21 824.14 201.97 819.48 207.7 814.79C212.78 810.63 217.87 806.47 223.09 802.5C224.44 801.529 226.047 800.979 227.71 800.92C243.15 800.713 258.59 800.593 274.03 800.56C375.023 800.56 476.023 800.56 577.03 800.56C587.48 800.56 597.77 798.78 606.86 793.78C627.19 782.59 638.86 764.84 638.92 741.78C639.39 637.78 639.19 533.78 638.98 429.78C638.875 423.295 637.689 416.874 635.47 410.78C626.95 386.84 605.28 371.03 578.33 371.06C420.85 371.227 263.366 371.303 105.88 371.29C98.7477 371.397 91.6709 372.559 84.8796 374.74C62.9696 381.54 45.5696 405.35 45.5596 428.12C45.4863 533.113 45.5063 638.113 45.6196 743.12C45.6196 754.41 49.4496 764.87 55.9596 774.2C68.0796 791.56 85.0596 799.7 105.9 800.69C109.15 800.84 112.67 801.25 115.52 802.69C124.2 806.94 128.3 814.28 128.29 823.94C128.26 842.85 128.27 861.84 128.27 882.44Z" fill="black"/>
<path d="M1043.42 556.51C1043.42 541.44 1043.42 527.64 1043.42 513.83C1043.42 507.51 1043.5 501.18 1043.79 494.83C1044.34 482.67 1055.98 474.7 1066.39 474.72C1086.6 474.72 1102.55 466.28 1114.63 450.29C1123.08 439.12 1125.97 426.29 1125.95 412.5C1125.86 338.173 1125.86 263.84 1125.95 189.5C1125.95 162.01 1125.87 134.5 1125.95 107.01C1126.04 84.8999 1117.21 67.5699 1098.7 55.3299C1088.68 48.6947 1076.9 45.2118 1064.89 45.3299C970.729 45.2832 876.572 45.2832 782.419 45.3299H594.419C566.169 45.3299 543.419 61.6199 535.119 88.5599C533.119 95.0899 532.909 102.36 532.889 109.29C532.709 158.62 532.889 207.95 532.759 257.29C532.759 274.73 517.589 285.09 501.229 279.15C493.339 276.28 487.499 267.85 487.299 258.57C487.119 250.57 487.299 242.57 487.239 234.57C487.239 191.41 486.739 148.24 487.369 105.09C488.019 61.0899 509.249 29.3199 548.369 9.67989C561.709 2.96989 576.309 0.0798811 591.369 0.0798811C749.689 0.0798811 907.999 -0.170119 1066.31 0.21988C1109 0.32988 1140.37 20.9199 1160.59 58.2199C1168.39 72.6299 1171.49 88.4699 1171.5 104.85C1171.5 208.17 1171.73 311.49 1171.39 414.85C1171.25 457.42 1151.19 488.7 1114.1 509.06C1108.1 512.36 1101.22 514.24 1094.61 516.33C1090.82 517.53 1089.11 519.02 1089.15 523.46C1089.4 550.79 1089.36 578.12 1089.23 605.46C1089.16 620.58 1076.41 631.91 1062.43 629.03C1058.06 628.111 1053.97 626.145 1050.53 623.3C1012.24 590.48 974.092 557.5 936.079 524.36C933.017 521.58 928.981 520.121 924.849 520.3C867.849 520.407 810.849 520.433 753.849 520.38C744.389 520.38 736.599 517.3 731.849 508.54C729.975 505.187 728.984 501.412 728.969 497.571C728.954 493.729 729.916 489.947 731.763 486.579C733.61 483.211 736.283 480.368 739.531 478.316C742.778 476.265 746.494 475.072 750.329 474.85C752.159 474.72 753.999 474.77 755.829 474.77C804.662 474.77 853.489 474.77 902.309 474.77C907.469 474.77 912.639 474.37 917.799 474.56C921.369 474.69 924.899 475.63 928.469 475.98C930.939 476.22 933.779 476.87 935.879 475.98C943.579 472.7 949.539 476.04 954.959 480.62C968.959 492.47 982.709 504.62 996.569 516.62C1010.94 529.067 1025.32 541.5 1039.71 553.92C1040.51 554.63 1041.48 555.18 1043.42 556.51Z" fill="black"/>
<path d="M829.389 291.78C835.389 283.67 841.069 276.15 846.649 268.58C851.009 262.67 855.649 256.92 859.479 250.69C863.059 244.88 865.729 238.5 868.859 232.41C871.989 226.32 875.239 220.31 878.379 214.23C879.989 211.13 878.869 209.31 875.469 209.33C831.682 209.523 787.892 209.753 744.099 210.02C737.269 210.02 730.439 210.09 723.609 210.02C718.178 209.895 712.959 207.89 708.841 204.346C704.723 200.803 701.962 195.941 701.029 190.59C700.192 185.374 701.202 180.03 703.886 175.48C706.57 170.93 710.759 167.46 715.729 165.67C718.909 164.55 722.609 164.61 726.069 164.6C751.069 164.52 776.069 164.46 801.069 164.6C805.439 164.6 807.069 163.3 806.899 158.92C806.649 153.92 806.699 148.92 806.899 143.92C807.349 131.29 816.809 121.98 829.239 121.78C841.239 121.59 851.759 131.69 852.239 144.02C852.439 149.18 852.519 154.37 852.239 159.51C851.989 163.6 853.669 164.58 857.449 164.51C882.449 164.39 907.449 164.28 932.449 164.6C937.449 164.67 943.179 165.42 947.129 168.04C952.229 171.42 956.679 176.11 957.309 183.48C958.069 192.48 956.069 199.88 948.589 205.29C943.869 208.7 938.589 210.69 932.689 209.84C928.689 209.26 927.349 210 925.929 214.26C919.702 232.77 911.575 250.585 901.679 267.42C890.227 287.252 876.697 305.81 861.319 322.78C876.564 334.955 893.111 345.402 910.659 353.93C917.659 357.38 925.739 358.93 930.999 365.67C937.899 374.46 938.219 385.02 931.489 393.67C928.301 397.734 923.863 400.635 918.862 401.923C913.86 403.212 908.573 402.817 903.819 400.8C876.747 389.321 851.484 373.974 828.819 355.24C812.319 365.45 796.389 375.71 780.049 385.24C772.13 389.703 763.867 393.525 755.339 396.67C743.959 401.03 730.529 394.96 726.989 383.34C723.259 371.07 726.599 359.7 740.219 353.89C759.271 345.801 777.294 335.475 793.909 323.13C794.298 322.71 794.634 322.243 794.909 321.74C780.799 305.55 767.909 288.42 758.019 269.31C755.389 264.24 752.599 258.84 751.819 253.31C750.199 241.86 757.819 232.09 769.279 229C779.219 226.33 790.369 232.22 795.389 242.45C804.029 260.11 815.229 276 829.389 291.78Z" fill="black"/>
<path d="M341.67 654.42C329.01 654.42 316.34 654.52 303.67 654.36C300.02 654.31 298.21 655.21 296.91 659.09C290.23 679.03 283.21 698.87 276.03 718.64C272.15 729.33 258.25 735.38 247.38 731.64C236.17 727.73 229.28 714.51 233.1 703.4C240 683.4 247.23 663.47 254.25 643.49C261.66 622.4 268.94 601.27 276.36 580.19C281.85 564.57 287.51 549.01 293.01 533.39C299.5 514.97 305.86 496.5 312.34 478.08C315.19 469.97 318 461.84 321.21 453.88C324.87 444.81 333.37 440.15 344.21 440.75C353.04 441.24 360.59 447.54 363.57 456.24C368.88 471.77 374.49 487.24 379.93 502.67C387.51 524.197 395.07 545.737 402.61 567.29C408.06 582.76 413.61 598.2 419.05 613.67C425.59 632.23 432.107 650.8 438.6 669.38C442.07 679.24 445.44 689.13 449.17 698.89C454.24 712.19 450.66 723.71 439.09 730.18C428.54 736.09 412.6 730.99 408.36 719.7C401.95 702.63 396.19 685.31 390.16 668.1C389.01 664.82 387.98 661.51 386.78 658.27C385.78 655.49 383.87 654.34 380.68 654.39C367.67 654.53 354.67 654.42 341.67 654.42ZM314.84 608.62H369.03C360.03 583.08 351.16 558.01 341.84 531.62C332.58 558.02 323.8 583.07 314.85 608.62H314.84Z" fill="black"/>
</g>
<defs>
<clipPath id="clip0_308_7184">
<rect width="1171.53" height="954.68" fill="white"/>
</clipPath>
</defs>
</svg>
