<svg width="549" height="549" viewBox="0 0 549 549" fill="none" xmlns="http://www.w3.org/2000/svg">
<g clip-path="url(#clip0_308_7199)">
<path d="M548.32 274.76C548.22 426.42 425.521 548.43 273.241 548.28C121.751 548.14 -0.289484 425.13 0.000515768 272.88C0.280516 121.53 123.381 -0.23989 275.881 0.000110017C426.461 0.23011 548.42 123.21 548.32 274.76ZM273.251 519.54C407.791 520.01 519.17 409.54 519.59 275.12C520.02 140.56 409.591 29.2301 275.161 28.7601C140.731 28.2901 29.4805 138.61 28.7605 273.23C28.0405 407.45 138.881 519.07 273.251 519.54Z" fill="black"/>
<path d="M266.272 442.71C221.012 441.88 186.522 423.71 157.092 394.5C150.092 387.55 148.772 379.23 156.022 372.05C163.552 364.6 171.312 367.41 178.262 374.2C203.382 398.76 232.132 414.8 268.652 412.88C297.082 411.4 321.002 399.16 342.832 382.04C372.892 358.48 395.222 328.33 415.192 296.22C417.662 292.22 419.642 287.12 423.292 284.95C427.542 282.42 434.692 280.19 438.182 282.14C442.462 284.52 444.472 291.26 446.952 296.36C447.592 297.69 446.752 300.23 445.822 301.74C408.462 362.74 366.882 419.15 292.622 438.99C289.452 439.816 286.232 440.434 282.982 440.84C276.452 441.67 269.882 442.31 266.272 442.71Z" fill="black"/>
<path d="M282.199 225.76C286.329 220.46 289.019 215.51 293.019 212.09C334.899 176.25 402.469 179.72 440.519 219.33C447.399 226.49 451.519 234.33 443.849 242.79C436.179 251.25 428.409 248.36 420.689 241.32C386.149 209.82 348.599 208.17 310.689 235.09C305.809 238.56 297.689 239.33 291.509 238.35C288.169 237.82 285.879 230.97 282.199 225.76Z" fill="black"/>
<path d="M212.579 209.95C212.499 231.04 195.979 247.95 175.319 248.14C154.199 248.31 136.939 230.58 137.319 209.14C137.719 187.93 154.099 172.06 175.419 172.22C196.739 172.38 212.659 188.61 212.579 209.95Z" fill="black"/>
</g>
<defs>
<clipPath id="clip0_308_7199">
<rect width="548.32" height="548.29" fill="white"/>
</clipPath>
</defs>
</svg>
