<svg xmlns="http://www.w3.org/2000/svg" version="1.1" xmlns:xlink="http://www.w3.org/1999/xlink" xmlns:svgjs="http://svgjs.com/svgjs" width="512" height="512" x="0" y="0" viewBox="0 0 512 512" style="enable-background:new 0 0 512 512" xml:space="preserve"><g><g xmlns="http://www.w3.org/2000/svg"><path d="m450.221 111.448c-39.449-32.948-91.816-51.094-147.455-51.094-35.643 0-70.835 7.664-101.769 22.165-3.751 1.758-5.366 6.224-3.608 9.975s6.225 5.366 9.974 3.607c28.956-13.573 61.945-20.747 95.403-20.747 107.1 0 194.234 72.221 194.234 160.993 0 6.527-.477 13.101-1.418 19.54-.599 4.099 2.239 7.906 6.338 8.505.368.054.732.08 1.093.08 3.662 0 6.867-2.686 7.412-6.417 1.045-7.154 1.575-14.458 1.575-21.708 0-47.268-21.94-91.625-61.779-124.899z" fill="#000000" data-original="#000000"></path><path d="m498.178 279.008c-3.886-1.436-8.199.555-9.633 4.44-10.43 28.261-30.11 53.604-56.941 73.343-3.306 1.868-4.713 5.95-3.194 9.486l24.737 57.593c1.576 4.649-.229 9.29-5.356 9.228-38.596-6.004-66.905-19.509-82.598-28.701 11.248-2.959 22.233-6.728 32.902-11.325 3.804-1.639 5.559-6.052 3.92-9.856-1.639-3.805-6.053-5.561-9.856-3.92-27.789 11.973-57.865 18.044-89.393 18.044-107.101 0-194.234-72.221-194.234-160.993 0-49.374 26.813-95.347 73.565-126.131 3.46-2.277 4.418-6.929 2.14-10.389-2.278-3.459-6.93-4.418-10.389-2.139-29.671 19.536-51.968 44.801-65.453 73.235-30.012 7.907-56.998 23.709-76.299 44.796-20.997 22.942-32.096 50.442-32.096 79.527 0 36.077 17.67 70.381 48.694 94.958l-15.694 36.538c-5.592 11.712 4.75 27.072 17.806 24.649 39.857-6.2 65.566-22.45 73.811-28.332 9.808 1.617 19.832 2.437 29.848 2.437 4.142 0 7.5-3.358 7.5-7.5 0-4.143-3.358-7.5-7.5-7.5-10.221 0-20.446-.928-30.393-2.757-2.157-.4-4.389.18-6.092 1.56-.252.203-25.647 20.453-69.48 27.271-1.406.188-2.543-2.238-1.718-3.906l18.022-41.958c1.473-3.428.186-7.36-2.914-9.298-29.805-21.895-46.89-53.274-46.89-86.162 0-25.272 9.738-49.27 28.161-69.399 15.008-16.398 35.276-29.267 58.08-37.1-5.06 15.279-7.71 31.258-7.71 47.6 0 47.268 21.94 91.625 61.779 124.899 18.57 15.51 40.004 27.737 63.292 36.338-11.177 4.809-23.054 8.321-35.496 10.472-9.652 1.522-6.947 16.606 2.556 14.782 19.211-3.322 37.231-9.615 53.618-18.713 20.268 5.401 41.622 8.215 63.486 8.215 14.189 0 28.106-1.171 41.689-3.472 9.928 7.253 45.11 30.353 101.03 39.052 7.062 1.111 14.096-1.723 18.64-7.601 4.927-6.353 6.002-14.925 2.804-22.37l-22.391-52.13c27.145-21.029 47.165-47.604 58.08-77.178 1.433-3.886-.554-8.199-4.44-9.633z" fill="#000000" data-original="#000000"></path><path d="m370.495 290.097 7.141-25.626h36.881l7.141 25.626c3.027 9.506 16.79 5.586 14.45-4.026l-25.235-90.566c-1.873-6.721-7.819-11.236-14.795-11.236s-12.923 4.515-14.796 11.237l-25.236 90.565c-2.335 9.659 11.459 13.495 14.449 4.026zm25.236-90.564c.041-.148.08-.206.079-.207.106-.074.43-.074.526-.008.001.001.042.056.086.214l13.915 49.938h-28.521z" fill="#000000" data-original="#000000"></path><path d="m245.575 217.924c0-18.581-15.116-33.697-33.697-33.697s-33.697 15.117-33.697 33.697v44.007c0 18.581 15.116 33.697 33.697 33.697 7.968 0 15.294-2.786 21.069-7.426l5.252 5.237c2.933 2.925 7.682 2.918 10.607-.015 2.924-2.934 2.918-7.682-.015-10.607l-6.47-6.452c2.084-4.378 3.255-9.271 3.255-14.434v-44.007zm-20.907 40.839c-2.934-2.926-7.682-2.918-10.607.015-2.924 2.934-2.918 7.682.015 10.607l8.136 8.113c-2.963 1.974-6.515 3.129-10.335 3.129-10.309 0-18.696-8.387-18.696-18.696v-44.007c0-10.31 8.387-18.697 18.696-18.697s18.697 8.387 18.697 18.697v44.007c0 .86-.079 1.7-.192 2.53z" fill="#000000" data-original="#000000"></path><path d="m269.992 277.584c1.941 9.619 9.905 16.868 19.817 18.037 1.001.117 1.999.176 2.996.176 10.351 0 20.357-6.315 28.32-17.647l8.586 13.88c2.18 3.524 6.801 4.614 10.324 2.433 3.523-2.179 4.612-6.801 2.433-10.324l-13.069-21.129c3.756-7.887 8.291-16.877 8.344-16.981 1.867-3.697.382-8.208-3.315-10.076-3.696-1.864-8.208-.383-10.076 3.315-.138.274-1.99 3.945-4.298 8.634l-8.886-14.365c1.364-1.564 2.946-3.453 4.534-5.514 6.492-8.419 9.515-14.898 9.515-20.388 0-12.909-10.502-23.41-23.41-23.41s-23.41 10.501-23.41 23.41c0 5.49 3.024 11.969 9.516 20.388 1.206 1.564 2.405 3.024 3.511 4.324-8.881 9.265-24.791 28.588-21.432 45.237zm31.816-78.357c4.636 0 8.408 3.772 8.409 8.408-.034 2.241-3.637 7.989-8.409 13.792-4.773-5.804-8.376-11.55-8.41-13.79 0-4.638 3.773-8.41 8.41-8.41zm-1.374 45.473 11.875 19.199c-7.084 13.288-15.22 17.473-20.744 16.824-3.507-.413-6.203-2.811-6.869-6.106-1.623-8.049 7.683-21.039 15.738-29.917z" fill="#000000" data-original="#000000"></path></g></g></svg>