<?xml version="1.0" encoding="UTF-8"?>
<svg width="752pt" height="752pt" version="1.1" viewBox="0 0 752 752" xmlns="http://www.w3.org/2000/svg">
 <defs>
  <clipPath id="a">
   <path d="m183 139.21h386v473.58h-386z"/>
  </clipPath>
 </defs>
 <g clip-path="url(#a)">
  <path d="m553.59 168.81h-22.199v-14.797c0-3.9258-1.5586-7.6914-4.3359-10.465-2.7734-2.7773-6.5391-4.3359-10.461-4.3359h-318.19c-3.9258 0-7.6914 1.5586-10.465 4.3359-2.7773 2.7734-4.3359 6.5391-4.3359 10.465v443.98c0 3.9258 1.5586 7.6914 4.3359 10.465 2.7734 2.7773 6.5391 4.3359 10.465 4.3359h318.19c3.9219 0 7.6875-1.5586 10.461-4.3359 2.7773-2.7734 4.3359-6.5391 4.3359-10.465v-14.801h22.199c3.9258 0 7.6914-1.5586 10.465-4.332 2.7773-2.7773 4.3359-6.5391 4.3359-10.465v-384.79c0-3.9258-1.5586-7.6914-4.3359-10.465-2.7734-2.7773-6.5391-4.3359-10.465-4.3359zm-355.18-14.797h318.19v14.797h-288.59c-3.9258 0-7.6914 1.5586-10.465 4.3359-2.7773 2.7734-4.3359 6.5391-4.3359 10.465v33.297h-14.797zm0 77.695h14.801v22.199h-14.801zm0 37h14.801v22.199h-14.801zm0 37h14.801v22.199l-14.801-0.003906zm0 37h14.801v22.199l-14.801-0.003906zm0 37h14.801v22.199l-14.801-0.007812zm0 37h14.801v22.199l-14.801-0.007812zm0 37h14.801v22.199l-14.801-0.007812zm0 37h14.801v22.199l-14.801-0.011719zm0 107.3v-70.309h14.801v40.699h-0.003907c0 3.9258 1.5586 7.6875 4.3359 10.465 2.7734 2.7734 6.5391 4.332 10.465 4.332h288.59v14.801zm29.598-29.598v-40.711h14.801c4.0859 0 7.3984-3.3125 7.3984-7.3984 0-4.0898-3.3125-7.4023-7.3984-7.4023h-14.801v-22.199h14.801c4.0859 0 7.3984-3.3125 7.3984-7.3984s-3.3125-7.3984-7.3984-7.3984h-14.801v-22.199h14.801c4.0859 0 7.3984-3.3125 7.3984-7.4023 0-4.0859-3.3125-7.3984-7.3984-7.3984h-14.801v-22.199h14.801c4.0859 0 7.3984-3.3125 7.3984-7.3984 0-4.0859-3.3125-7.4023-7.3984-7.4023h-14.801v-22.195h14.801c4.0859 0 7.3984-3.3164 7.3984-7.4023 0-4.0859-3.3125-7.3984-7.3984-7.3984h-14.801v-22.199h14.801c4.0859 0 7.3984-3.3125 7.3984-7.3984 0-4.0898-3.3125-7.4023-7.3984-7.4023h-14.801v-22.199h14.801c4.0859 0 7.3984-3.3125 7.3984-7.3984 0-4.0859-3.3125-7.3984-7.3984-7.3984h-14.801v-22.199h14.801c4.0859 0 7.3984-3.3125 7.3984-7.4023 0-4.0859-3.3125-7.3984-7.3984-7.3984h-14.801v-22.199h14.801c4.0859 0 7.3984-3.3125 7.3984-7.3984 0-4.0859-3.3125-7.4023-7.3984-7.4023h-14.801v-33.297h325.59v384.79z"/>
 </g>
 <path d="m531.39 498.1h-258.99c-4.0859 0-7.3984 3.3125-7.3984 7.3984 0 4.0859 3.3125 7.3984 7.3984 7.3984h258.99c4.0859 0 7.3984-3.3125 7.3984-7.3984 0-4.0859-3.3125-7.3984-7.3984-7.3984z"/>
 <path d="m531.39 239.11h-258.99c-4.0859 0-7.3984 3.3125-7.3984 7.4023 0 4.0859 3.3125 7.3984 7.3984 7.3984h258.99c4.0859 0 7.3984-3.3125 7.3984-7.3984 0-4.0898-3.3125-7.4023-7.3984-7.4023z"/>
 <path d="m265.01 283.5c0 1.9648 0.77734 3.8477 2.1641 5.2344 1.3906 1.3867 3.2695 2.168 5.2344 2.168h50.168c7.4375-5.9766 15.621-10.949 24.348-14.801h-74.516c-4.0859 0-7.3984 3.3125-7.3984 7.3984z"/>
 <path d="m531.39 276.11h-96.676c8.7266 3.8516 16.91 8.8242 24.344 14.801h72.332c4.0859 0 7.3984-3.3125 7.3984-7.4023 0-4.0859-3.3125-7.3984-7.3984-7.3984z"/>
 <path d="m272.41 327.9h20.461c2.5508-5.1562 5.5078-10.105 8.8398-14.797h-29.301c-4.0859 0-7.3984 3.3125-7.3984 7.3984 0 4.0859 3.3125 7.3984 7.3984 7.3984z"/>
 <path d="m531.39 313.11h-51.465c3.332 4.6914 6.2891 9.6406 8.8438 14.797h42.621c4.0859 0 7.3984-3.3125 7.3984-7.3984 0-4.0859-3.3125-7.3984-7.3984-7.3984z"/>
 <path d="m531.39 350.1h-34.594c1.1914 4.8672 2.0469 9.8125 2.5547 14.801h32.039c4.0859 0 7.3984-3.3125 7.3984-7.3984 0-4.0898-3.3125-7.4023-7.3984-7.4023z"/>
 <path d="m272.41 364.9h9.8047c0.50781-4.9883 1.3594-9.9336 2.5508-14.801h-12.355c-4.0859 0-7.3984 3.3125-7.3984 7.4023 0 4.0859 3.3125 7.3984 7.3984 7.3984z"/>
 <path d="m531.39 387.1h-32.004c-0.50781 4.9844-1.3594 9.9297-2.5508 14.797h34.555c4.0859 0 7.3984-3.3125 7.3984-7.3984s-3.3125-7.3984-7.3984-7.3984z"/>
 <path d="m272.41 401.9h12.395c-1.1914-4.8672-2.0469-9.8125-2.5547-14.797h-9.8398c-4.0859 0-7.3984 3.3125-7.3984 7.3984s3.3125 7.3984 7.3984 7.3984z"/>
 <path d="m531.39 424.1h-42.66c-2.5508 5.1602-5.5078 10.109-8.8398 14.801h51.5c4.0859 0 7.3984-3.3125 7.3984-7.3984s-3.3125-7.4023-7.3984-7.4023z"/>
 <path d="m272.41 438.9h29.266c-3.332-4.6914-6.2891-9.6406-8.8438-14.801h-20.422c-4.0859 0-7.3984 3.3164-7.3984 7.4023s3.3125 7.3984 7.3984 7.3984z"/>
 <path d="m272.41 475.9h74.477c-8.7266-3.8516-16.91-8.8281-24.344-14.801h-50.133c-4.0859 0-7.3984 3.3125-7.3984 7.3984 0 4.0898 3.3125 7.4023 7.3984 7.4023z"/>
 <path d="m531.39 461.1h-72.367c-7.4375 5.9727-15.621 10.949-24.348 14.801h96.715c4.0859 0 7.3984-3.3125 7.3984-7.4023 0-4.0859-3.3125-7.3984-7.3984-7.3984z"/>
 <path d="m334.34 387.1 30.301 30.301h0.003906c1.3867 1.3906 3.2695 2.1719 5.2344 2.1719s3.8477-0.78125 5.2344-2.1719l72.148-72.148c2.8906-2.8906 2.8906-7.5781 0-10.469s-7.582-2.8906-10.473 0l-66.93 66.82-25.047-25.047v-0.003906c-2.9141-2.8906-7.6172-2.875-10.508 0.039062-2.8906 2.9102-2.875 7.6172 0.035156 10.508z"/>
 <path d="m390.8 470.35c25.023 0 49.02-9.9414 66.711-27.633 17.695-17.695 27.637-41.691 27.637-66.715 0-25.02-9.9414-49.02-27.637-66.711-17.691-17.695-41.688-27.633-66.711-27.633-25.023 0-49.02 9.9375-66.711 27.633-17.695 17.691-27.637 41.691-27.637 66.711 0.03125 25.016 9.9805 48.996 27.668 66.684 17.688 17.684 41.668 27.633 66.68 27.664zm0-173.89c21.098 0 41.332 8.3828 56.25 23.301 14.918 14.918 23.297 35.148 23.297 56.246s-8.3789 41.332-23.297 56.25-35.152 23.297-56.25 23.297c-21.098 0-41.332-8.3789-56.246-23.297-14.918-14.918-23.301-35.152-23.301-56.25 0.019532-21.09 8.4062-41.312 23.32-56.227 14.914-14.914 35.137-23.301 56.227-23.32z"/>
</svg>
